<?xml version="1.0" encoding="utf-8"?>
<!-- Generator: Adobe Illustrator 25.0.0, SVG Export Plug-In . SVG Version: 6.00 Build 0)  -->
<svg version="1.1" id="PRINT" xmlns="http://www.w3.org/2000/svg" xmlns:xlink="http://www.w3.org/1999/xlink" x="0px" y="0px"
	 viewBox="0 0 500 500" style="enable-background:new 0 0 500 500;" xml:space="preserve">
<style type="text/css">
	.st0{display:none;fill:url(#CUSTOM-Background_1_);}
	.st1{fill:#2B3BC0;}
	.st2{font-family:'CopperplateGothic-Bold';}
	.st3{font-size:57.8379px;}
	.st4{font-family:'FranklinGothic-DemiItalic';}
	.st5{font-size:30.5801px;}
	.st6{fill:url(#CUSTOM_2_);}
	.st7{fill:url(#CUSTOM_3_);}
	.st8{fill:url(#CUSTOM_4_);}
	.st9{fill:none;stroke:url(#SVGID_1_);stroke-width:5;stroke-miterlimit:10;}
</style>
<g>
	<radialGradient id="CUSTOM-Background_1_" cx="253" cy="250" r="250" gradientUnits="userSpaceOnUse">
		<stop  offset="0" style="stop-color:#C5D4C2"/>
		<stop  offset="0.2751" style="stop-color:#C3D3C6"/>
		<stop  offset="0.5194" style="stop-color:#BFCFD0"/>
		<stop  offset="0.7521" style="stop-color:#B7C8E2"/>
		<stop  offset="0.9764" style="stop-color:#ABBEFC"/>
		<stop  offset="1" style="stop-color:#AABDFF"/>
	</radialGradient>
	<rect id="CUSTOM-Background_00000140711782801488810830000015175388008639639205_" x="3" class="st0" width="500" height="500"/>
	<text transform="matrix(1 0 0 1 171.5 258.2588)" class="st1 st2 st3">Flash</text>
	<g>
		<text transform="matrix(1 0 0 1 174.4398 295.7688)" class="st1 st4 st5">Health</text>
	</g>
	
		<linearGradient id="CUSTOM_2_" gradientUnits="userSpaceOnUse" x1="336.8212" y1="-115.8612" x2="336.8212" y2="-39.5445" gradientTransform="matrix(-0.6925 0.7214 0.7214 0.6925 422.1438 76.3226)">
		<stop  offset="0" style="stop-color:#0038C2"/>
		<stop  offset="1" style="stop-color:#47B4D2"/>
	</linearGradient>
	<path id="CUSTOM_00000167364554571000672030000011285236050719710087_" class="st6" d="M95.67,274l24.75,22.73
		c10.13,9.3,26.27,8.98,36-0.7c9.5-9.46,9.4-24.43-0.06-33.78l-4.26-22.86c-0.02-0.1-0.04-0.19-0.07-0.28
		c-0.8-6.02-3.87-11.73-8.71-16.18c-2.86-2.62-6.12-4.63-9.7-5.96c-0.13-0.05-0.25-0.1-0.38-0.14c-0.06-0.02-0.12-0.05-0.18-0.07
		l0,0.01c-2.12-0.62-4.51-0.1-6.15,1.53c-2.32,2.31-2.24,5.98,0.17,8.2c2.41,2.22,6.25,2.14,8.57-0.17c0.38-0.38,0.7-0.8,0.95-1.24
		c0.88,0.61,1.72,1.29,2.53,2.03c8.24,7.57,9.43,19.21,2.66,25.95c-6.77,6.75-18.98,6.08-27.22-1.49c-0.8-0.74-1.54-1.52-2.22-2.33
		c0.45-0.26,0.88-0.58,1.26-0.96c2.32-2.31,2.24-5.98-0.17-8.2c-2.41-2.22-6.25-2.14-8.57,0.17c-1.64,1.63-2.08,3.94-1.34,5.94
		l-0.01,0c0.03,0.06,0.05,0.12,0.08,0.17c0.05,0.12,0.1,0.24,0.16,0.36c1.54,3.37,3.77,6.41,6.62,9.03
		c4.99,4.59,11.32,7.31,17.85,7.71c0.15,0.04,0.3,0.08,0.46,0.1l23.71,3.11c6.82,7.15,6.77,18.27-0.34,25.35
		c-7.41,7.38-19.71,7.62-27.42,0.53l-24.75-22.73c1.54-3.26,0.87-7.24-1.98-9.86c-3.62-3.32-9.38-3.21-12.86,0.25
		c-3.47,3.46-3.35,8.98,0.26,12.3C88.14,275.12,92.33,275.6,95.67,274z M146.16,257.07c0.95-0.94,1.78-1.96,2.52-3.03l1.2,6.44
		l-6.78-0.89C144.19,258.85,145.21,258.01,146.16,257.07z M89.49,268.32c-1.21-1.11-1.24-2.95-0.09-4.1
		c1.16-1.15,3.08-1.19,4.29-0.08c1.21,1.11,1.24,2.95,0.09,4.1C92.62,269.39,90.69,269.43,89.49,268.32z"/>
	<g>
		
			<linearGradient id="CUSTOM_3_" gradientUnits="userSpaceOnUse" x1="-67.1894" y1="-64.1847" x2="-67.1894" y2="8.4834" gradientTransform="matrix(2.500000e-03 -1 -1 -2.500000e-03 275.4245 224.9953)">
			<stop  offset="0" style="stop-color:#0038C2"/>
			<stop  offset="1" style="stop-color:#2B9AE3"/>
		</linearGradient>
		<path id="CUSTOM" class="st7" d="M333.48,286.36c-2.59-0.01-4.81,1.65-5.63,3.96c0,0-30.36-0.01-61.07-0.01v3.99
			c30.71,0,61.06,0.01,61.06,0.01c0.82,2.31,3.03,3.98,5.62,3.99c3.29,0.01,5.97-2.66,5.99-5.96
			C339.45,289.05,336.78,286.37,333.48,286.36z M333.46,294.32c-1.09-0.01-1.98-0.9-1.98-2c0-1.09,0.89-1.98,1.99-1.98
			c1.1,0,1.98,0.89,1.98,1.99C335.45,293.43,334.56,294.32,333.46,294.32z"/>
		
			<linearGradient id="CUSTOM_4_" gradientUnits="userSpaceOnUse" x1="-42.9492" y1="8.6246" x2="-42.9492" y2="97.3099" gradientTransform="matrix(-2.500000e-03 -1 1 -2.500000e-03 197.2254 224.9953)">
			<stop  offset="0" style="stop-color:#0038C2"/>
			<stop  offset="1" style="stop-color:#2B9AE3"/>
		</linearGradient>
		<path id="CUSTOM_1_" class="st8" d="M213.23,261.94c3.16-0.01,5.87,1.65,6.87,3.96c0,0,37.05-0.01,74.53-0.01v3.99
			c-37.47,0-74.52,0.01-74.52,0.01c-1,2.31-3.7,3.98-6.86,3.99c-4.01,0.01-7.29-2.66-7.3-5.96
			C205.95,264.63,209.21,261.94,213.23,261.94z M213.25,269.89c1.33-0.01,2.42-0.9,2.41-2c0-1.09-1.09-1.98-2.43-1.98
			c-1.34,0-2.42,0.89-2.42,1.99C210.82,269.01,211.91,269.89,213.25,269.89z"/>
		<linearGradient id="SVGID_1_" gradientUnits="userSpaceOnUse" x1="264.9927" y1="280.0975" x2="296.4232" y2="280.0975">
			<stop  offset="0" style="stop-color:#0038C2"/>
			<stop  offset="1" style="stop-color:#2B9AE3"/>
		</linearGradient>
		<line class="st9" x1="266.78" y1="294.3" x2="294.64" y2="265.89"/>
	</g>
</g>
</svg>
